<svg xmlns="http://www.w3.org/2000/svg" width="1440" height="2426" fill="none" viewBox="0 0 1440 2426"><g opacity=".5"><g clip-path="url(#clip0_1_3)"><rect width="3556" height="2700" x="-979" y="-274" fill="#0D0A2C" rx="120"/><g filter="url(#filter0_f_1_3)"><ellipse cx="40.5" cy="77.5" fill="#001973" rx="384.5" ry="380.5"/></g><g filter="url(#filter1_f_1_3)"><path fill="#00AAB8" d="M536 1142.12C536 1468.34 230.942 1607 -92.4897 1607C-415.921 1607 -692 1321.82 -692 995.588C-692 669.358 -497.426 310 -173.994 310C7.26033 310 -126.858 795.436 -19.4376 925.875C64.8239 1028.19 536 998.709 536 1142.12Z"/></g><g filter="url(#filter2_f_1_3)"><ellipse cx="-500.989" cy="299.826" fill="#00E0FF" rx="222.47" ry="433.326" transform="rotate(-13.2724 -500.989 299.826)"/></g></g></g><defs><filter id="filter0_f_1_3" width="1609" height="1601" x="-764" y="-723" color-interpolation-filters="sRGB" filterUnits="userSpaceOnUse"><feFlood flood-opacity="0" result="BackgroundImageFix"/><feBlend in="SourceGraphic" in2="BackgroundImageFix" mode="normal" result="shape"/><feGaussianBlur result="effect1_foregroundBlur_1_3" stdDeviation="210"/></filter><filter id="filter1_f_1_3" width="2068" height="2137" x="-1112" y="-110" color-interpolation-filters="sRGB" filterUnits="userSpaceOnUse"><feFlood flood-opacity="0" result="BackgroundImageFix"/><feBlend in="SourceGraphic" in2="BackgroundImageFix" mode="normal" result="shape"/><feGaussianBlur result="effect1_foregroundBlur_1_3" stdDeviation="210"/></filter><filter id="filter2_f_1_3" width="1316.69" height="1689.75" x="-1159.33" y="-545.049" color-interpolation-filters="sRGB" filterUnits="userSpaceOnUse"><feFlood flood-opacity="0" result="BackgroundImageFix"/><feBlend in="SourceGraphic" in2="BackgroundImageFix" mode="normal" result="shape"/><feGaussianBlur result="effect1_foregroundBlur_1_3" stdDeviation="210"/></filter><clipPath id="clip0_1_3"><rect width="3556" height="2700" x="-979" y="-274" fill="#fff" rx="120"/></clipPath></defs></svg>